<svg width="120" height="120" viewBox="0 0 120 120" xmlns="http://www.w3.org/2000/svg">
    <g fill="none" fill-rule="evenodd">
        <circle stroke="#D2D2D7" cx="60" cy="60" r="59.5"/>
        <path d="M60.69 81.774c2.46 0 4.695-.398 6.707-1.194 2.013-.796 3.74-1.936 5.18-3.421 1.442-1.486 2.554-3.263 3.337-5.333.782-2.07 1.173-4.372 1.173-6.908 0-1.848-.258-3.683-.774-5.505a20.95 20.95 0 0 0-2.216-5.125c-.96-1.594-2.096-2.972-3.407-4.131-.02-1.727-.447-3.21-1.28-4.448-.832-1.237-1.993-2.188-3.482-2.852-1.49-.664-3.236-.996-5.237-.996-2.003 0-3.75.332-5.238.996-1.49.664-2.65 1.618-3.482 2.861-.832 1.244-1.259 2.73-1.28 4.456a17.968 17.968 0 0 0-3.398 4.123 20.976 20.976 0 0 0-2.217 5.09 19.906 19.906 0 0 0-.784 5.531c0 2.536.392 4.839 1.175 6.908.783 2.07 1.897 3.847 3.344 5.333 1.447 1.485 3.173 2.625 5.18 3.421 2.006.796 4.24 1.194 6.7 1.194zm0-27.068c1.62 0 3.197-.137 4.73-.411 1.534-.275 2.84-.648 3.922-1.12.764.815 1.505 1.812 2.222 2.992.718 1.18 1.305 2.506 1.76 3.979.454 1.473.682 3.064.682 4.772 0 2.754-.556 5.167-1.666 7.24-1.111 2.071-2.664 3.681-4.66 4.83-1.995 1.148-4.325 1.723-6.99 1.723s-4.995-.575-6.99-1.723c-1.995-1.149-3.548-2.759-4.66-4.83-1.11-2.073-1.667-4.486-1.667-7.24 0-1.696.228-3.281.684-4.754.455-1.474 1.039-2.8 1.751-3.98.712-1.18 1.462-2.182 2.25-3.009 1.08.46 2.383.83 3.91 1.11 1.529.28 3.103.42 4.723.42zm-1.343 24.84h2.544V58.24c0-.355-.123-.656-.37-.902a1.23 1.23 0 0 0-.903-.37c-.343 0-.64.124-.893.37a1.213 1.213 0 0 0-.378.902v21.305zM54.772 61.14c.651 0 1.21-.233 1.675-.7a2.286 2.286 0 0 0 .698-1.673 2.3 2.3 0 0 0-.69-1.676 2.276 2.276 0 0 0-1.683-.698c-.651 0-1.206.233-1.665.698a2.3 2.3 0 0 0-.69 1.676c0 .65.23 1.208.69 1.674.459.466 1.014.699 1.665.699zm-2.217 7.362c.755 0 1.404-.271 1.946-.815a2.681 2.681 0 0 0 .814-1.966c0-.754-.271-1.402-.814-1.945a2.655 2.655 0 0 0-1.946-.814 2.66 2.66 0 0 0-1.948.814 2.653 2.653 0 0 0-.814 1.945c0 .767.271 1.423.814 1.966a2.657 2.657 0 0 0 1.948.815zm2.217 6.326c.607 0 1.123-.215 1.547-.644a2.11 2.11 0 0 0 .637-1.537c0-.607-.212-1.124-.637-1.548a2.107 2.107 0 0 0-1.547-.636c-.597 0-1.11.212-1.54.636-.43.424-.645.94-.645 1.548 0 .595.215 1.107.645 1.537.43.43.943.644 1.54.644zM66.61 61.14c.65 0 1.206-.233 1.671-.7a2.286 2.286 0 0 0 .698-1.673c0-.652-.232-1.21-.698-1.676a2.28 2.28 0 0 0-1.671-.698c-.652 0-1.21.233-1.676.698a2.285 2.285 0 0 0-.697 1.676c0 .65.232 1.208.697 1.674a2.283 2.283 0 0 0 1.676.699zm2.214 7.362a2.68 2.68 0 0 0 1.967-.815 2.68 2.68 0 0 0 .815-1.966c0-.755-.272-1.403-.815-1.945a2.683 2.683 0 0 0-1.967-.814c-.754 0-1.403.272-1.946.814-.542.543-.814 1.191-.814 1.945 0 .767.272 1.423.814 1.966a2.654 2.654 0 0 0 1.946.815zM66.61 74.83c.606 0 1.122-.215 1.546-.644a2.11 2.11 0 0 0 .636-1.537c0-.607-.212-1.124-.636-1.548a2.105 2.105 0 0 0-1.546-.636c-.596 0-1.11.212-1.54.636-.43.424-.645.94-.645 1.548 0 .595.215 1.107.646 1.537.43.43.943.644 1.539.644zm-14.1-34.01 1.226.448c.392.125.665.292.817.5.153.21.193.467.12.772l-.234 1.007 2.913-.02.12-.988c.108-.927-.052-1.724-.478-2.39-.426-.665-1.108-1.165-2.047-1.498l-1.448-.573c-.485-.166-.897-.147-1.237.056-.34.203-.572.49-.697.86-.124.37-.117.733.024 1.088.14.355.447.601.921.738zm16.36 0c.475-.137.785-.383.931-.738.146-.355.154-.718.024-1.088a1.602 1.602 0 0 0-.697-.86c-.334-.203-.744-.222-1.23-.056l-1.447.573c-.938.333-1.623.833-2.056 1.498-.432.666-.595 1.463-.488 2.39l.138.989 2.895.02-.233-1.008c-.062-.305-.019-.563.128-.771.147-.209.417-.376.81-.501l1.226-.448zM49.282 53.662l-3.672-3.05c-.364-.305-.759-.463-1.186-.473-.427-.01-.785.162-1.075.518-.3.355-.408.744-.324 1.169.084.424.308.787.671 1.09l3.692 3.07 1.894-2.324zm-3.484 8.678-4.622.02c-.495 0-.89.139-1.181.417-.293.279-.439.64-.439 1.083 0 .456.15.823.447 1.1.299.277.69.416 1.173.416l4.622-.02V62.34zm1.435 10.928-3.517 2.945c-.35.295-.567.656-.653 1.085-.086.429.022.816.324 1.162.3.37.662.549 1.085.539.424-.01.816-.174 1.178-.492l3.482-2.93-1.899-2.31zM72.098 53.68l1.895 2.323 3.71-3.087c.351-.303.57-.666.654-1.09.084-.425-.024-.814-.326-1.169-.288-.356-.646-.529-1.073-.518-.427.01-.822.168-1.186.474l-3.674 3.067zm3.487 8.66v3.017l4.62.02c.496 0 .89-.14 1.183-.417.292-.277.438-.644.438-1.1 0-.443-.146-.804-.438-1.083-.293-.278-.687-.418-1.183-.418l-4.62-.02zm-1.436 10.91-1.898 2.31 3.482 2.947c.36.318.756.482 1.185.492.428.01.788-.17 1.078-.54.3-.345.41-.732.331-1.16-.08-.43-.3-.791-.66-1.086l-3.518-2.963z" fill="#6E6E73" fill-rule="nonzero"/>
    </g>
</svg>
