<svg width="120" height="120" viewBox="0 0 120 120" xmlns="http://www.w3.org/2000/svg">
    <g fill="none" fill-rule="evenodd">
        <circle stroke="#D2D2D7" cx="60" cy="60" r="59.5"/>
        <path d="M57.116 61.044V79.1c0 1.173.223 2.076.668 2.708.444.632 1.056.974 1.833 1.027.778.053 1.664-.203 2.657-.769l15.586-9.013c.69-.397 1.222-.802 1.596-1.216.374-.414.638-.887.79-1.42.152-.532.229-1.168.229-1.908v-18.57c0-1.018-.256-1.787-.769-2.307a2.809 2.809 0 0 0-1.88-.853c-.742-.049-1.47.126-2.184.525l-15.932 9.21c-.635.375-1.143.77-1.522 1.182-.379.413-.652.889-.82 1.429-.168.54-.252 1.18-.252 1.919zm4.438-1.353 15.003-8.658c.083-.055.16-.065.23-.03.07.036.105.102.105.2v17.201c0 .378-.058.669-.173.873-.115.204-.336.401-.66.59l-15.06 8.702c-.083.055-.154.065-.211.029-.058-.036-.087-.102-.087-.198V61.155c0-.42.064-.725.19-.914.128-.189.349-.372.663-.55zm-2.51 14.261v-4.21l-6.596 3.8c-.097.054-.171.067-.222.037-.05-.03-.076-.092-.076-.188V56.127c0-.42.063-.725.19-.914.126-.188.346-.372.66-.55l14.984-8.658c.097-.055.176-.061.24-.02.064.042.095.105.095.19v7.376l3.585-1.894v-6.745c0-1.018-.253-1.788-.76-2.308a2.777 2.777 0 0 0-1.872-.853c-.741-.049-1.47.133-2.183.544l-15.932 9.19c-.634.376-1.144.774-1.53 1.193a3.747 3.747 0 0 0-.83 1.428c-.167.534-.251 1.17-.251 1.91v18.056c0 1.173.225 2.076.675 2.708.451.632 1.065.974 1.843 1.027.778.053 1.658-.203 2.64-.769l5.34-3.086zm-8.756-4.264v-4.23l-5.91 3.442c-.097.043-.174.049-.232.02-.058-.03-.087-.093-.087-.19V51.467c0-.407.067-.705.2-.894.133-.188.35-.378.653-.57l15.004-8.657c.096-.055.175-.062.239-.02.063.042.095.105.095.19v6.782l3.583-1.757v-6.27c0-1.016-.253-1.789-.758-2.316a2.763 2.763 0 0 0-1.881-.864c-.748-.048-1.473.133-2.174.544l-15.932 9.191c-.648.376-1.162.774-1.541 1.194-.38.419-.653.895-.82 1.428-.168.533-.252 1.169-.252 1.909v18.058c0 1.171.225 2.073.677 2.705.45.632 1.065.975 1.843 1.028.778.053 1.657-.204 2.638-.769l4.655-2.69z" fill="#6E6E73" fill-rule="nonzero"/>
    </g>
</svg>
